<svg width="41" height="20" viewBox="0 0 41 20" fill="none" xmlns="http://www.w3.org/2000/svg">
<path d="M40.9393 9.52959C40.6168 8.57605 39.9365 8.24724 38.9453 8.24831C27.98 8.26528 17.0146 8.25891 6.04926 8.25891C5.8944 8.25891 5.73954 8.25891 5.49817 8.25891C5.67225 8.0786 5.78439 7.95662 5.90187 7.83995C7.61925 6.14076 9.33769 4.44051 11.0572 2.74239C11.5154 2.28948 11.6617 1.74324 11.4887 1.13972C11.3189 0.547867 10.8991 0.170269 10.2893 0.0387466C9.69334 -0.0895941 9.19244 0.10769 8.76524 0.529835C7.20807 2.07098 5.64769 3.60895 4.08838 5.14798C2.92637 6.29562 1.76437 7.44326 0.6045 8.59302C-0.200787 9.3917 -0.203995 10.2986 0.603428 11.0973C3.31193 13.7776 6.02363 16.4557 8.7364 19.1318C9.45945 19.8446 10.4249 19.8785 11.0828 19.2273C11.7504 18.5665 11.7066 17.597 10.9707 16.8683C9.27254 15.1861 7.57333 13.506 5.87197 11.827C5.76838 11.7252 5.64875 11.6382 5.53661 11.5449C5.54729 11.5077 5.55798 11.4717 5.56865 11.4345C5.71497 11.4345 5.86129 11.4345 6.00654 11.4345C16.9847 11.4345 27.964 11.4282 38.9421 11.4452C39.9354 11.4473 40.6157 11.1174 40.9393 10.1649C40.9393 9.9528 40.9393 9.74172 40.9393 9.52959Z" fill="#0A3253"/>
</svg>
