<svg width="33" height="19" viewBox="0 0 33 19" fill="none" xmlns="http://www.w3.org/2000/svg">
<path d="M0 9.66705C0.252375 10.5741 0.784703 10.8869 1.56021 10.8859C10.1401 10.8698 18.72 10.8758 27.3 10.8758C27.4211 10.8758 27.5423 10.8758 27.7312 10.8758C27.595 11.0474 27.5072 11.1634 27.4153 11.2744C26.0715 12.8908 24.7269 14.5082 23.3815 16.1236C23.023 16.5545 22.9085 17.0741 23.0439 17.6482C23.1767 18.2112 23.5051 18.5704 23.9823 18.6956C24.4486 18.8177 24.8406 18.63 25.1748 18.2284C26.3933 16.7623 27.6142 15.2993 28.8343 13.8352C29.7435 12.7435 30.6527 11.6517 31.5603 10.558C32.1904 9.79822 32.1929 8.93552 31.5611 8.17575C29.4418 5.62601 27.32 3.07829 25.1974 0.532589C24.6316 -0.145456 23.8762 -0.177746 23.3614 0.441778C22.8391 1.07038 22.8734 1.99261 23.4492 2.68579C24.7779 4.28606 26.1075 5.88432 27.4387 7.48156C27.5197 7.57842 27.6133 7.66116 27.7011 7.74995C27.6927 7.78527 27.6844 7.81957 27.676 7.85489C27.5615 7.85489 27.447 7.85489 27.3334 7.85489C18.7434 7.85489 10.1527 7.86094 1.56272 7.8448C0.785538 7.84278 0.253211 8.15658 0 9.06266C0 9.26446 0 9.46525 0 9.66705Z" fill="#0A3253"/>
</svg>
