<svg width="80" height="64" viewBox="0 0 80 64" fill="none" xmlns="http://www.w3.org/2000/svg">
<g clip-path="url(#clip0_3863_167)">
<path fill-rule="evenodd" clip-rule="evenodd" d="M50.6589 21.0364C47.798 23.3409 44.6797 25.215 41.3715 26.6081C39.5915 23.3397 37.3533 20.2532 34.7066 17.4058C36.2696 16.8902 37.9372 16.5986 39.6757 16.5986C43.9544 16.5986 47.8312 18.2944 50.6589 21.0364ZM40.1121 29.8343C40.5406 30.7317 40.928 31.6482 41.2926 32.5724C36.0144 34.296 31.3997 37.8811 28.5207 42.8923C25.7467 40.1198 24.0282 36.32 24.0078 32.1209C29.6416 32.4299 35.0889 31.6069 40.1121 29.8343ZM42.5366 28.8936C43.0011 29.8768 43.4162 30.8763 43.8063 31.8831C47.6275 31.0945 51.5898 31.283 55.3162 32.4307C55.3182 32.3788 55.3219 32.3272 55.3256 32.2756C55.3311 32.1977 55.3366 32.1197 55.3366 32.0403C55.3366 28.6561 54.2197 25.5344 52.3468 22.9886C49.3817 25.385 46.0875 27.384 42.5366 28.8936ZM46.7685 45.8098C46.5671 41.9317 45.8861 38.0759 44.6853 34.3414C48.1302 33.6853 51.6796 33.9227 55.0462 35.0504C54.1031 39.7616 50.9861 43.6939 46.7685 45.8098ZM38.921 27.5326C37.1081 24.2727 34.8377 21.2414 32.169 18.4886C30.0798 19.6172 28.2791 21.2008 26.9038 23.1189C25.5286 25.037 24.6151 27.2392 24.2328 29.5578C29.2881 29.8254 34.2573 29.1302 38.921 27.5326ZM40.706 35.514C41.1865 35.3178 41.6761 35.1564 42.1656 34.998C43.395 38.7858 44.0655 42.7637 44.1916 46.8353C42.7259 47.2719 41.2031 47.4939 39.6721 47.4941C36.2621 47.4941 33.1167 46.4082 30.544 44.5838C32.7545 40.4932 36.304 37.3113 40.706 35.514Z" fill="white"/>
<path d="M9.36415 18.0784C10.1203 16.8986 10.447 15.7998 10.447 15.7998C10.447 15.7998 9.45588 16.1288 8.23829 17.0855C7.12481 18.0813 5.83562 19.8154 5.92641 22.0843C7.5913 20.7652 8.69009 19.3527 9.36415 18.0784Z" fill="white"/>
<path d="M9.36415 18.0784C10.1203 16.8986 10.447 15.7998 10.447 15.7998C10.447 15.7998 9.45588 16.1288 8.23829 17.0855C7.12481 18.0813 5.83562 19.8154 5.92641 22.0843C7.5913 20.7652 8.69009 19.3527 9.36415 18.0784Z" fill="white"/>
<path d="M3.00574 31.1845L2.94114 32.1113C2.92958 32.3087 3.06613 32.4837 3.2655 32.4886C3.45723 32.5043 3.6304 32.3442 3.64102 32.1534L3.70625 31.2293C5.07381 30.4144 6.01178 29.2517 6.60226 28.215C6.89984 27.6404 7.16688 27.1229 7.35869 26.7514C7.51392 26.3571 7.61501 26.1183 7.61501 26.1183C7.61501 26.1183 6.72574 26.2033 5.63202 26.9077C4.85816 27.4904 3.81787 28.5536 3.43261 30.2474C3.43012 30.247 3.42784 30.2451 3.42485 30.2446C3.43738 28.4978 3.22384 27.1085 2.78179 26.0037C2.37824 24.6987 1.7965 23.8926 1.7965 23.8926C1.7965 23.8926 1.70239 24.212 1.55242 24.7208C1.42352 25.2393 1.25629 25.9498 1.30577 26.7808C1.3167 28.2857 1.69961 30.051 3.00574 31.1845Z" fill="white"/>
<path d="M3.00574 31.1845L2.94114 32.1113C2.92958 32.3087 3.06613 32.4837 3.2655 32.4886C3.45723 32.5043 3.6304 32.3442 3.64102 32.1534L3.70625 31.2293C5.07381 30.4144 6.01178 29.2517 6.60226 28.215C6.89984 27.6404 7.16688 27.1229 7.35869 26.7514C7.51392 26.3571 7.61501 26.1183 7.61501 26.1183C7.61501 26.1183 6.72574 26.2033 5.63202 26.9077C4.85816 27.4904 3.81787 28.5536 3.43261 30.2474C3.43012 30.247 3.42784 30.2451 3.42485 30.2446C3.43738 28.4978 3.22384 27.1085 2.78179 26.0037C2.37824 24.6987 1.7965 23.8926 1.7965 23.8926C1.7965 23.8926 1.70239 24.212 1.55242 24.7208C1.42352 25.2393 1.25629 25.9498 1.30577 26.7808C1.3167 28.2857 1.69961 30.051 3.00574 31.1845Z" fill="white"/>
<path d="M3.86112 26.387C3.79051 26.5798 3.90058 26.7796 4.09209 26.8401C4.27278 26.8978 4.46165 26.782 4.53068 26.6004L4.82525 25.7472C6.31558 25.306 7.28708 24.3324 8.13056 23.535C8.56745 23.0795 8.88101 22.6265 9.0901 22.2918C9.31885 21.9662 9.46882 21.7751 9.46882 21.7751C9.46882 21.7751 8.54729 21.6111 7.48767 22.1104C6.60567 22.4904 5.49586 23.262 4.77144 24.7085C4.7641 24.7062 4.75784 24.7036 4.75093 24.7019C5.11659 23.1035 5.12856 21.7762 4.97957 20.6778C4.74903 19.3222 4.43391 18.4857 4.43391 18.4857C4.31231 18.3675 2.0847 22.7485 4.14154 25.5618L3.86112 26.387Z" fill="white"/>
<path d="M3.86112 26.387C3.79051 26.5798 3.90058 26.7796 4.09209 26.8401C4.27278 26.8978 4.46165 26.782 4.53068 26.6004L4.82525 25.7472C6.31558 25.306 7.28708 24.3324 8.13056 23.535C8.56745 23.0795 8.88101 22.6265 9.0901 22.2918C9.31885 21.9662 9.46882 21.7751 9.46882 21.7751C9.46882 21.7751 8.54729 21.6111 7.48767 22.1104C6.60567 22.4904 5.49586 23.262 4.77144 24.7085C4.7641 24.7062 4.75784 24.7036 4.75093 24.7019C5.11659 23.1035 5.12856 21.7762 4.97957 20.6778C4.74903 19.3222 4.43391 18.4857 4.43391 18.4857C4.31231 18.3675 2.0847 22.7485 4.14154 25.5618L3.86112 26.387Z" fill="white"/>
<path d="M5.90545 42.6539C6.16434 43.0251 6.64472 43.6996 6.68187 43.664C6.82782 43.8124 7.05822 43.8288 7.19473 43.6933C7.33045 43.5567 7.34038 43.3309 7.20394 43.195C7.16643 43.2217 6.68468 42.5501 6.44168 42.2072C7.69808 38.3317 6.92041 35.2351 7.058 35.0273C7.058 35.0273 6.0586 35.5663 5.51271 36.8039C4.93028 37.8848 4.61261 39.8913 5.83533 41.9041C5.82733 41.91 5.81878 41.9128 5.81128 41.9189C5.7983 41.9277 5.79166 41.9422 5.78102 41.9524C4.35644 40.0825 3.14114 38.7289 2.00719 37.6699C0.666056 36.5098 -0.239287 35.9171 -0.238494 35.9115C-0.312486 35.8825 -0.0456548 37.6532 1.03169 39.5354C2.02369 41.2558 3.88631 42.731 5.90545 42.6539Z" fill="white"/>
<path d="M5.90545 42.6539C6.16434 43.0251 6.64472 43.6996 6.68187 43.664C6.82782 43.8124 7.05822 43.8288 7.19473 43.6933C7.33045 43.5567 7.34038 43.3309 7.20394 43.195C7.16643 43.2217 6.68468 42.5501 6.44168 42.2072C7.69808 38.3317 6.92041 35.2351 7.058 35.0273C7.058 35.0273 6.0586 35.5663 5.51271 36.8039C4.93028 37.8848 4.61261 39.8913 5.83533 41.9041C5.82733 41.91 5.81878 41.9128 5.81128 41.9189C5.7983 41.9277 5.79166 41.9422 5.78102 41.9524C4.35644 40.0825 3.14114 38.7289 2.00719 37.6699C0.666056 36.5098 -0.239287 35.9171 -0.238494 35.9115C-0.312486 35.8825 -0.0456548 37.6532 1.03169 39.5354C2.02369 41.2558 3.88631 42.731 5.90545 42.6539Z" fill="white"/>
<path d="M10.2926 46.7454L12.5629 48.149C12.7351 48.2627 12.9583 48.175 13.0378 48.0056C13.1208 47.8159 13.0367 47.6198 12.8747 47.5131L10.6353 46.1225C10.5372 43.9807 9.95243 42.2392 9.45498 41.0136C8.99246 39.6528 8.43878 38.7779 8.47708 38.7383C8.47708 38.7383 7.71035 39.6101 7.60919 41.11C7.38938 42.5212 8.00958 44.5723 10.0677 46.1154C10.0539 46.1303 10.0373 46.1427 10.0251 46.1611C7.88157 44.8098 5.97769 44.053 4.49251 43.3922C2.77683 42.7663 1.60156 42.5091 1.60156 42.5091C1.60156 42.5091 1.7608 42.9498 2.23168 43.5507C2.71129 44.1296 3.35556 44.9518 4.24324 45.6334C5.95314 46.9251 8.33351 47.6943 10.2926 46.7454Z" fill="white"/>
<path d="M10.2926 46.7454L12.5629 48.149C12.7351 48.2627 12.9583 48.175 13.0378 48.0056C13.1208 47.8159 13.0367 47.6198 12.8747 47.5131L10.6353 46.1225C10.5372 43.9807 9.95243 42.2392 9.45498 41.0136C8.99246 39.6528 8.43878 38.7779 8.47708 38.7383C8.47708 38.7383 7.71035 39.6101 7.60919 41.11C7.38938 42.5212 8.00958 44.5723 10.0677 46.1154C10.0539 46.1303 10.0373 46.1427 10.0251 46.1611C7.88157 44.8098 5.97769 44.053 4.49251 43.3922C2.77683 42.7663 1.60156 42.5091 1.60156 42.5091C1.60156 42.5091 1.7608 42.9498 2.23168 43.5507C2.71129 44.1296 3.35556 44.9518 4.24324 45.6334C5.95314 46.9251 8.33351 47.6943 10.2926 46.7454Z" fill="white"/>
<path d="M3.40057 37.2502L3.74493 38.4974C3.80078 38.6945 3.98944 38.8114 4.17161 38.7393C4.35427 38.6674 4.45698 38.457 4.40617 38.2675L4.076 37.0681C5.33574 35.6327 6.13906 34.0794 6.50992 32.8126C7.07131 31.4293 7.07966 30.3116 7.14281 30.2945C7.14281 30.2945 6.12788 30.5569 5.14084 31.6082C4.22406 32.5162 3.28326 34.2298 3.64567 36.5521C3.62038 36.5505 3.59559 36.5454 3.5705 36.5496C2.97015 34.2858 2.25505 32.5598 1.52897 31.2654C0.676783 29.8233 -0.134865 29.001 -0.134865 29.001C-0.134865 29.001 -0.234215 29.3935 -0.216673 30.0496C-0.22043 30.7011 -0.175624 31.6122 -0.0177423 32.5753C0.433164 34.4267 1.41897 36.5305 3.40057 37.2502Z" fill="white"/>
<path d="M3.40057 37.2502L3.74493 38.4974C3.80078 38.6945 3.98944 38.8114 4.17161 38.7393C4.35427 38.6674 4.45698 38.457 4.40617 38.2675L4.076 37.0681C5.33574 35.6327 6.13906 34.0794 6.50992 32.8126C7.07131 31.4293 7.07966 30.3116 7.14281 30.2945C7.14281 30.2945 6.12788 30.5569 5.14084 31.6082C4.22406 32.5162 3.28326 34.2298 3.64567 36.5521C3.62038 36.5505 3.59559 36.5454 3.5705 36.5496C2.97015 34.2858 2.25505 32.5598 1.52897 31.2654C0.676783 29.8233 -0.134865 29.001 -0.134865 29.001C-0.134865 29.001 -0.234215 29.3935 -0.216673 30.0496C-0.22043 30.7011 -0.175624 31.6122 -0.0177423 32.5753C0.433164 34.4267 1.41897 36.5305 3.40057 37.2502Z" fill="white"/>
<path d="M70.0594 18.0784C69.3033 16.8986 68.9766 15.7998 68.9766 15.7998C68.9766 15.7998 69.9677 16.1288 71.1853 17.0855C72.2986 18.0813 73.5881 19.8154 73.4974 22.0843C71.832 20.7652 70.7335 19.3527 70.0594 18.0784Z" fill="white"/>
<path d="M70.0594 18.0784C69.3033 16.8986 68.9766 15.7998 68.9766 15.7998C68.9766 15.7998 69.9677 16.1288 71.1853 17.0855C72.2986 18.0813 73.5881 19.8154 73.4974 22.0843C71.832 20.7652 70.7335 19.3527 70.0594 18.0784Z" fill="white"/>
<path d="M76.4219 31.1845L76.4867 32.1113C76.4983 32.3087 76.3615 32.4837 76.162 32.4886C75.9705 32.5043 75.797 32.3442 75.7869 32.1534L75.7214 31.2293C74.3541 30.4144 73.4159 29.2517 72.8255 28.215C72.5282 27.6404 72.2611 27.1229 72.0688 26.7514C71.914 26.3571 71.8125 26.1183 71.8125 26.1183C71.8125 26.1183 72.7017 26.2033 73.7954 26.9077C74.5694 27.4904 75.6098 28.5536 75.995 30.2474C75.9979 30.247 76 30.2451 76.0029 30.2446C75.9907 28.4978 76.2038 27.1085 76.6459 26.0037C77.0498 24.6987 77.6315 23.8926 77.6315 23.8926C77.6315 23.8926 77.7251 24.212 77.8756 24.7208C78.0045 25.2393 78.1715 25.9498 78.1219 26.7808C78.1111 28.2857 77.728 30.051 76.4219 31.1845Z" fill="white"/>
<path d="M76.4219 31.1845L76.4867 32.1113C76.4983 32.3087 76.3615 32.4837 76.162 32.4886C75.9705 32.5043 75.797 32.3442 75.7869 32.1534L75.7214 31.2293C74.3541 30.4144 73.4159 29.2517 72.8255 28.215C72.5282 27.6404 72.2611 27.1229 72.0688 26.7514C71.914 26.3571 71.8125 26.1183 71.8125 26.1183C71.8125 26.1183 72.7017 26.2033 73.7954 26.9077C74.5694 27.4904 75.6098 28.5536 75.995 30.2474C75.9979 30.247 76 30.2451 76.0029 30.2446C75.9907 28.4978 76.2038 27.1085 76.6459 26.0037C77.0498 24.6987 77.6315 23.8926 77.6315 23.8926C77.6315 23.8926 77.7251 24.212 77.8756 24.7208C78.0045 25.2393 78.1715 25.9498 78.1219 26.7808C78.1111 28.2857 77.728 30.051 76.4219 31.1845Z" fill="white"/>
<path d="M75.5689 26.387C75.6394 26.5798 75.5293 26.7796 75.3378 26.8401C75.157 26.8978 74.9684 26.782 74.8993 26.6004L74.6048 25.7472C73.1144 25.306 72.1424 24.3324 71.2992 23.535C70.8623 23.0795 70.5487 22.6265 70.3397 22.2918C70.1109 21.9662 69.9609 21.7751 69.9609 21.7751C69.9609 21.7751 70.8825 21.6111 71.9422 22.1104C72.8242 22.4904 73.9338 23.262 74.6581 24.7085C74.666 24.7062 74.6718 24.7036 74.679 24.7019C74.3132 23.1035 74.3009 21.7762 74.45 20.6778C74.6804 19.3222 74.9958 18.4857 74.9958 18.4857C75.1174 18.3675 77.3451 22.7485 75.2881 25.5618L75.5689 26.387Z" fill="white"/>
<path d="M75.5689 26.387C75.6394 26.5798 75.5293 26.7796 75.3378 26.8401C75.157 26.8978 74.9684 26.782 74.8993 26.6004L74.6048 25.7472C73.1144 25.306 72.1424 24.3324 71.2992 23.535C70.8623 23.0795 70.5487 22.6265 70.3397 22.2918C70.1109 21.9662 69.9609 21.7751 69.9609 21.7751C69.9609 21.7751 70.8825 21.6111 71.9422 22.1104C72.8242 22.4904 73.9338 23.262 74.6581 24.7085C74.666 24.7062 74.6718 24.7036 74.679 24.7019C74.3132 23.1035 74.3009 21.7762 74.45 20.6778C74.6804 19.3222 74.9958 18.4857 74.9958 18.4857C75.1174 18.3675 77.3451 22.7485 75.2881 25.5618L75.5689 26.387Z" fill="white"/>
<path d="M73.5289 42.6539C73.2697 43.0251 72.7895 43.6996 72.7521 43.664C72.6066 43.8124 72.3762 43.8288 72.2394 43.6933C72.1041 43.5567 72.094 43.3309 72.2301 43.195C72.2675 43.2217 72.7499 42.5501 72.9925 42.2072C71.7361 38.3317 72.5137 35.2351 72.3762 35.0273C72.3762 35.0273 73.3756 35.5663 73.9213 36.8039C74.5038 37.8848 74.8213 39.8913 73.5988 41.9041C73.6067 41.91 73.6153 41.9128 73.6233 41.9189C73.6362 41.9277 73.6427 41.9422 73.6535 41.9524C75.0777 40.0825 76.293 38.7289 77.427 37.6699C78.7684 36.5098 79.6734 35.9171 79.6727 35.9115C79.7469 35.8825 79.4797 37.6532 78.4026 39.5354C77.4105 41.2558 75.5478 42.731 73.5289 42.6539Z" fill="white"/>
<path d="M73.5289 42.6539C73.2697 43.0251 72.7895 43.6996 72.7521 43.664C72.6066 43.8124 72.3762 43.8288 72.2394 43.6933C72.1041 43.5567 72.094 43.3309 72.2301 43.195C72.2675 43.2217 72.7499 42.5501 72.9925 42.2072C71.7361 38.3317 72.5137 35.2351 72.3762 35.0273C72.3762 35.0273 73.3756 35.5663 73.9213 36.8039C74.5038 37.8848 74.8213 39.8913 73.5988 41.9041C73.6067 41.91 73.6153 41.9128 73.6233 41.9189C73.6362 41.9277 73.6427 41.9422 73.6535 41.9524C75.0777 40.0825 76.293 38.7289 77.427 37.6699C78.7684 36.5098 79.6734 35.9171 79.6727 35.9115C79.7469 35.8825 79.4797 37.6532 78.4026 39.5354C77.4105 41.2558 75.5478 42.731 73.5289 42.6539Z" fill="white"/>
<path d="M69.137 46.7454L66.8668 48.149C66.6945 48.2627 66.4713 48.175 66.3918 48.0056C66.3088 47.8159 66.3929 47.6198 66.5549 47.5131L68.7944 46.1225C68.8924 43.9807 69.4772 42.2392 69.9746 41.0136C70.4372 39.6528 70.9909 38.7779 70.9526 38.7383C70.9526 38.7383 71.7194 39.6101 71.8202 41.11C72.0405 42.5212 71.4199 44.5723 69.3619 46.1154C69.3758 46.1303 69.3923 46.1427 69.4045 46.1611C71.5481 44.8098 73.4517 44.053 74.9371 43.3922C76.6529 42.7663 77.8279 42.5091 77.8279 42.5091C77.8279 42.5091 77.6688 42.9498 77.1979 43.5507C76.7184 44.1296 76.074 44.9518 75.1862 45.6334C73.4762 46.9251 71.0961 47.6943 69.137 46.7454Z" fill="white"/>
<path d="M69.137 46.7454L66.8668 48.149C66.6945 48.2627 66.4713 48.175 66.3918 48.0056C66.3088 47.8159 66.3929 47.6198 66.5549 47.5131L68.7944 46.1225C68.8924 43.9807 69.4772 42.2392 69.9746 41.0136C70.4372 39.6528 70.9909 38.7779 70.9526 38.7383C70.9526 38.7383 71.7194 39.6101 71.8202 41.11C72.0405 42.5212 71.4199 44.5723 69.3619 46.1154C69.3758 46.1303 69.3923 46.1427 69.4045 46.1611C71.5481 44.8098 73.4517 44.053 74.9371 43.3922C76.6529 42.7663 77.8279 42.5091 77.8279 42.5091C77.8279 42.5091 77.6688 42.9498 77.1979 43.5507C76.7184 44.1296 76.074 44.9518 75.1862 45.6334C73.4762 46.9251 71.0961 47.6943 69.137 46.7454Z" fill="white"/>
<path d="M76.0238 37.2502L75.6796 38.4974C75.6235 38.6945 75.4348 38.8114 75.2527 38.7393C75.0698 38.6674 74.9676 38.457 75.018 38.2675L75.3484 37.0681C74.0884 35.6327 73.2856 34.0794 72.9148 32.8126C72.3532 31.4293 72.3446 30.3116 72.2812 30.2945C72.2812 30.2945 73.2964 30.5569 74.2836 31.6082C75.2001 32.5162 76.1412 34.2298 75.779 36.5521C75.8042 36.5505 75.8287 36.5454 75.8539 36.5496C76.4544 34.2858 77.1693 32.5598 77.8951 31.2654C78.7476 29.8233 79.559 29.001 79.559 29.001C79.559 29.001 79.6584 29.3935 79.6411 30.0496C79.6447 30.7011 79.6 31.6122 79.4424 32.5753C78.9909 34.4267 78.0052 36.5305 76.0238 37.2502Z" fill="white"/>
<path d="M76.0238 37.2502L75.6796 38.4974C75.6235 38.6945 75.4348 38.8114 75.2527 38.7393C75.0698 38.6674 74.9676 38.457 75.018 38.2675L75.3484 37.0681C74.0884 35.6327 73.2856 34.0794 72.9148 32.8126C72.3532 31.4293 72.3446 30.3116 72.2812 30.2945C72.2812 30.2945 73.2964 30.5569 74.2836 31.6082C75.2001 32.5162 76.1412 34.2298 75.779 36.5521C75.8042 36.5505 75.8287 36.5454 75.8539 36.5496C76.4544 34.2858 77.1693 32.5598 77.8951 31.2654C78.7476 29.8233 79.559 29.001 79.559 29.001C79.559 29.001 79.6584 29.3935 79.6411 30.0496C79.6447 30.7011 79.6 31.6122 79.4424 32.5753C78.9909 34.4267 78.0052 36.5305 76.0238 37.2502Z" fill="white"/>
</g>
<defs>
<clipPath id="clip0_3863_167">
<rect width="80" height="64" fill="white"/>
</clipPath>
</defs>
</svg>
