<svg width="287" height="73" viewBox="0 0 287 73" fill="none" xmlns="http://www.w3.org/2000/svg">
<g clip-path="url(#clip0_1785_239)">
<path d="M160.356 50.2278C160.356 46.1134 160.181 42.305 160.414 38.5161C160.59 35.6501 163.559 33.7945 167.279 33.7896C169.143 33.7896 171.012 33.8236 172.877 33.7751C174.011 33.7459 174.469 34.1054 174.405 34.9749C174.362 35.5432 174.396 36.1116 174.396 36.7771C171.504 36.7771 168.744 36.7771 165.823 36.7771C165.789 37.224 165.745 37.5786 165.74 37.9332C165.735 40.8526 165.706 43.7769 165.755 46.6963C165.769 47.5658 165.312 48.0661 164.358 48.445C163.077 48.9599 161.855 49.5526 160.356 50.2278Z" fill="#983231"/>
<path d="M100.319 24.9492V38.5894C100.319 45.0111 97.4125 49.6161 91.011 49.6161C84.4682 49.6161 81.7031 45.0111 81.7031 38.5894V24.9492H85.1936V39.7503C85.1936 43.5247 87.3404 46.1332 91.011 46.1332C94.6475 46.1332 96.8284 43.5198 96.8284 39.7503V24.9492H100.319Z" fill="white"/>
<path d="M126.827 24.9481V49.9065L106.469 29.1694V24.3652L123.337 41.634V24.9481H126.827ZM106.469 32.1082L109.959 35.6106V49.3236H106.469V32.1082Z" fill="white"/>
<path d="M133.414 49.3295V24.9492H136.905V49.3295H133.414Z" fill="white"/>
<path d="M140.996 28.369V24.9492H157.285V28.369H140.996ZM147.398 49.3295V30.3557H150.888V49.3247H147.398V49.3295Z" fill="white"/>
<path d="M174.372 24.9492H160.41V28.4321H174.372V24.9492Z" fill="white"/>
<path d="M197.172 49.3294H193.389L191.028 44.1027H191.014L185.537 32.0607L180.061 44.1027H180.046L177.685 49.3294H173.902L185.537 24.3711L197.172 49.3294Z" fill="white"/>
<path d="M217.849 43.4843L219.339 46.7486C217.304 48.6334 214.359 49.6146 211.706 49.6146C204.691 49.6146 198.98 44.0284 198.98 37.1354C198.98 30.2425 204.686 24.6562 211.706 24.6562C214.359 24.6562 217.304 25.5986 219.339 27.4882L217.849 30.7525C216.175 29.0475 214.252 28.1391 211.487 28.1391C206.507 28.1391 202.471 32.1661 202.471 37.1354C202.471 42.1047 206.507 46.1317 211.487 46.1317C214.252 46.1317 216.175 45.2282 217.849 43.4843Z" fill="white"/>
<path d="M221.879 28.369V24.9492H238.168V28.369H221.879ZM228.276 49.3295V30.3557H231.766V49.3247H228.276V49.3295Z" fill="white"/>
<path d="M251.337 24.7012V28.1938C246.795 28.6795 243.315 32.4636 243.315 37.1366C243.315 41.8096 246.795 45.5937 251.337 46.0795V49.5721C244.897 49.0669 239.824 43.6944 239.824 37.1366C239.824 30.5789 244.897 25.2064 251.337 24.7012ZM264.837 37.1366C264.837 43.6944 259.769 49.0669 253.324 49.5721V46.0795C257.865 45.5937 261.346 41.8096 261.346 37.1366C261.346 32.4636 257.865 28.6795 253.324 28.1938V24.7012C259.769 25.2064 264.837 30.5789 264.837 37.1366Z" fill="white"/>
<path d="M286.998 49.3237H282.928L276.858 40.9054H273.041V49.3237H269.551V37.4225H278.24C280.786 37.4225 282.928 36.1158 282.928 32.9584C282.928 29.767 280.855 28.4263 278.313 28.4263H269.551V24.9434H277.111C283.474 24.9434 286.419 28.1348 286.419 32.7447C286.419 36.519 284.345 39.5987 280.713 40.58L286.998 49.3237Z" fill="white"/>
<path d="M21.2686 71.7961C20.1294 71.4269 18.927 71.1986 17.8706 70.6691C12.1506 67.8031 6.44516 64.8934 0.798142 61.8817C0.31133 61.6243 0.0143749 60.5216 0.00950674 59.8075C-0.0343063 49.0625 0.0922648 24.3471 0.00950674 22.7392C-0.0489107 21.6074 0.471978 20.937 1.37258 20.4027C10.0378 15.2488 32.4507 2.1284 34.8604 0.530251C36.0239 -0.237249 36.9001 -0.106094 37.9419 0.505963C47.7366 6.26708 69.0151 18.9843 69.9498 19.3486C72.8171 20.4707 73.484 22.438 73.4256 25.4789C73.2163 37.0254 73.3769 48.5768 73.4256 60.1281C73.4305 61.43 73.0605 62.1975 71.8776 62.7852C66.3182 65.5395 60.7977 68.3812 55.2432 71.1549C54.2988 71.6261 53.2667 71.9224 52.1276 72.0875C53.5491 71.0529 54.9657 70.0085 56.4018 68.9884C58.9381 67.1814 61.5425 65.4666 63.9766 63.5333C64.59 63.0475 64.9454 61.8914 64.9502 61.0414C65.0135 49.8689 65.0914 23.429 64.9502 21.3985C64.9064 20.7427 64.405 19.8635 63.8549 19.5332C56.027 14.8602 48.0238 10.464 40.3565 5.55301C37.2506 3.56625 35.1038 3.77027 32.1391 5.6453C24.9148 10.2212 17.4617 14.4376 10.0816 18.7705C9.00092 19.402 8.50924 20.155 8.51411 21.4762C8.56279 34.6355 8.55793 47.7995 8.50924 60.9636C8.50438 62.2655 8.97658 63.0378 10.0135 63.7228C13.8398 66.2584 17.6272 68.8524 21.4341 71.4221C21.3757 71.5532 21.3221 71.6746 21.2686 71.7961Z" fill="white"/>
<path d="M42.0407 9.56922C44.4504 10.9439 46.4999 11.998 48.4033 13.2756C48.9193 13.6253 49.2017 14.6454 49.2163 15.3692C49.2893 19.6682 49.3137 23.9671 49.226 28.2613C49.1968 29.6505 49.6642 29.9906 50.9737 29.9371C53.4467 29.84 55.9294 29.9663 58.4024 29.8983C59.5124 29.8691 59.9018 30.1849 59.9213 31.3361C59.9894 35.5477 60.0284 35.5428 55.8223 35.5185C53.6268 35.5088 51.4264 35.5185 49.2212 35.5185C47.9262 42.9701 42.6395 47.5508 37.7081 52.2724C34.6655 55.1821 30.474 55.6338 27.558 53.958C24.9438 52.457 23.7025 50.0622 23.6635 47.167C23.571 40.5607 23.5905 33.9495 23.6684 27.3383C23.683 25.9005 23.2692 25.4293 21.8526 25.541C20.4116 25.6527 18.9561 25.5653 17.3398 25.5653C17.3398 23.6903 17.3398 21.9075 17.3398 19.9499C17.9776 19.9208 18.6007 19.8625 19.2238 19.8625C24.126 19.8576 29.0233 19.8625 33.9255 19.8625C36.0334 19.8625 36.0675 19.8285 36.0724 17.6717C36.0772 14.0819 36.0724 10.497 36.0724 6.91211C38.8521 6.9364 40.6776 8.86972 40.6387 11.4151C40.5705 15.7627 40.6095 20.1102 40.5949 24.4626C40.5949 24.7735 40.5462 25.0844 40.5024 25.5701C37.8638 25.5701 35.2935 25.6382 32.728 25.541C31.3698 25.4876 30.9803 25.9539 30.9901 27.28C31.0436 32.8128 30.9901 38.3505 31.0047 43.8833C31.0144 47.7402 33.5312 49.2024 36.8756 47.2739C39.8646 45.5494 41.437 42.7515 41.6464 39.4774C41.992 34.0709 41.9531 28.6401 42.0261 23.2191C42.0748 19.5662 42.0407 15.9132 42.0456 12.2555C42.0407 11.5074 42.0407 10.7739 42.0407 9.56922Z" fill="#983231"/>
<path d="M21.8548 33.2689C18.7197 33.2689 15.8524 33.2689 12.9023 33.2689C12.9023 31.8214 12.9023 30.4709 12.9023 28.9457C15.682 28.9457 18.3449 28.9165 21.0078 28.9845C21.2999 28.9894 21.7915 29.5189 21.8207 29.8346C21.9181 30.9373 21.8548 32.0545 21.8548 33.2689Z" fill="white"/>
<path d="M6.24708 29.8594H2.36719V33.7309H6.24708V29.8594Z" fill="black"/>
<path d="M6.24708 35.3438H2.36719V39.2153H6.24708V35.3438Z" fill="black"/>
<path d="M6.24708 40.8281H2.36719V44.6996H6.24708V40.8281Z" fill="black"/>
<path d="M6.24708 46.3066H2.36719V50.1781H6.24708V46.3066Z" fill="black"/>
<path d="M6.24708 51.791H2.36719V55.6625H6.24708V51.791Z" fill="black"/>
<path d="M71.1533 29.8594H67.2734V33.7309H71.1533V29.8594Z" fill="black"/>
<path d="M71.1533 35.3438H67.2734V39.2153H71.1533V35.3438Z" fill="black"/>
<path d="M71.1533 40.8281H67.2734V44.6996H71.1533V40.8281Z" fill="black"/>
<path d="M71.1533 46.3066H67.2734V50.1781H71.1533V46.3066Z" fill="black"/>
<path d="M71.1533 51.791H67.2734V55.6625H71.1533V51.791Z" fill="black"/>
<path d="M24.9102 57.3965L24.9686 63.5171C24.9686 63.5171 24.8907 64.1485 26.0201 64.8432L30.4209 67.5586V60.1605C30.4257 60.1605 27.9673 60.4471 24.9102 57.3965Z" fill="white"/>
<path d="M36.0595 58.5777L36.0352 73L40.0854 71.2901V54.9297C40.0854 54.9297 38.2648 57.0622 36.0595 58.5777Z" fill="#983231"/>
<path d="M42.1142 52.8934L42.1094 70.3565L47.6785 67.1942C47.6785 67.1942 48.7349 66.5481 48.7738 64.4885L48.8128 48.9005L59.4837 48.9442V45.9616C59.4837 45.9616 60.0435 44.4169 57.2346 44.4023L50.1223 44.4266C50.1223 44.4266 48.9296 44.3878 47.7028 44.8541C47.7028 44.859 45.702 49.736 42.1142 52.8934Z" fill="white"/>
</g>
<defs>
<clipPath id="clip0_1785_239">
<rect width="287" height="73" fill="white"/>
</clipPath>
</defs>
</svg>
