<svg width="320" height="360" viewBox="0 0 320 360" fill="none" xmlns="http://www.w3.org/2000/svg">
  <defs>
    <linearGradient id="bg4" x1="18" y1="20" x2="302" y2="340" gradientUnits="userSpaceOnUse">
      <stop stop-color="#5A4131"/>
      <stop offset="1" stop-color="#2D1F17"/>
    </linearGradient>
  </defs>
  <rect width="320" height="360" rx="32" fill="url(#bg4)"/>
  <ellipse cx="160" cy="336" rx="160" ry="44" fill="#1A120D" fill-opacity="0.5"/>
  <ellipse cx="160" cy="116" rx="66" ry="74" fill="#F0C5A6"/>
  <path d="M96 120C96 73 126 40 160 40C194 40 224 73 224 120V124H96V120Z" fill="#43322A"/>
  <path d="M101 108C113 86 134 72 160 72C186 72 207 86 219 108" stroke="#2F221C" stroke-width="12" stroke-linecap="round"/>
  <circle cx="137" cy="118" r="5" fill="#2D2D2D"/>
  <circle cx="183" cy="118" r="5" fill="#2D2D2D"/>
  <path d="M150 147C154 151 166 151 170 147" stroke="#B3735E" stroke-width="3" stroke-linecap="round"/>
  <rect x="146" y="172" width="28" height="25" rx="8" fill="#F0C5A6"/>
  <path d="M72 336C80 262 119 214 160 214C201 214 240 262 248 336H72Z" fill="#6D4C39"/>
  <path d="M124 206C138 216 182 216 196 206" stroke="#E3B59A" stroke-width="6" stroke-linecap="round"/>
</svg>
