<svg width="320" height="360" viewBox="0 0 320 360" fill="none" xmlns="http://www.w3.org/2000/svg">
  <defs>
    <linearGradient id="bg5" x1="20" y1="16" x2="300" y2="344" gradientUnits="userSpaceOnUse">
      <stop stop-color="#32415E"/>
      <stop offset="1" stop-color="#1A2234"/>
    </linearGradient>
  </defs>
  <rect width="320" height="360" rx="32" fill="url(#bg5)"/>
  <ellipse cx="160" cy="336" rx="160" ry="44" fill="#101625" fill-opacity="0.5"/>
  <ellipse cx="160" cy="116" rx="66" ry="74" fill="#EDC5A8"/>
  <path d="M92 120C92 71 122 38 160 38C198 38 228 71 228 120C228 132 225 143 220 152C213 111 196 80 160 80C124 80 107 111 100 152C95 143 92 132 92 120Z" fill="#1E2631"/>
  <circle cx="137" cy="118" r="5" fill="#2D2D2D"/>
  <circle cx="183" cy="118" r="5" fill="#2D2D2D"/>
  <path d="M150 147C154 151 166 151 170 147" stroke="#AB6F5E" stroke-width="3" stroke-linecap="round"/>
  <rect x="146" y="172" width="28" height="25" rx="8" fill="#EDC5A8"/>
  <path d="M70 336C78 262 117 214 160 214C203 214 242 262 250 336H70Z" fill="#455D8B"/>
  <path d="M124 206C138 216 182 216 196 206" stroke="#E1B49A" stroke-width="6" stroke-linecap="round"/>
</svg>
