<svg width="237" height="154" viewBox="0 0 237 154" fill="none" xmlns="http://www.w3.org/2000/svg">
<g filter="url(#filter0_f_3366_15154)">
<path d="M90.3566 29.6407C155.52 36.1416 332.405 343.995 323.232 407.148C312.431 481.51 267.306 193.19 177.106 387.153C111.943 380.652 29.9195 237.847 39.0921 174.695C48.2647 111.543 25.1936 23.1398 90.3566 29.6407Z" fill="url(#paint0_linear_3366_15154)"/>
</g>
<g filter="url(#filter1_f_3366_15154)">
<path d="M-24.0886 -202.188C-27.134 -131.781 34.4191 -71.7476 25.2465 -8.59529C16.0739 54.557 7.85735 33.0079 -57.3056 26.507C-122.468 20.0061 -156.99 -52.5747 -147.818 -115.727C-138.645 -178.879 -55.0364 -131.41 -24.0886 -202.188Z" fill="#E4C691" fill-opacity="0.86"/>
</g>
<defs>
<filter id="filter0_f_3366_15154" x="-35.2702" y="-44.3542" width="432.502" height="537.721" filterUnits="userSpaceOnUse" color-interpolation-filters="sRGB">
<feFlood flood-opacity="0" result="BackgroundImageFix"/>
<feBlend mode="normal" in="SourceGraphic" in2="BackgroundImageFix" result="shape"/>
<feGaussianBlur stdDeviation="36.828" result="effect1_foregroundBlur_3366_15154"/>
</filter>
<filter id="filter1_f_3366_15154" x="-209.653" y="-262.563" width="296.209" height="358.275" filterUnits="userSpaceOnUse" color-interpolation-filters="sRGB">
<feFlood flood-opacity="0" result="BackgroundImageFix"/>
<feBlend mode="normal" in="SourceGraphic" in2="BackgroundImageFix" result="shape"/>
<feGaussianBlur stdDeviation="30.188" result="effect1_foregroundBlur_3366_15154"/>
</filter>
<linearGradient id="paint0_linear_3366_15154" x1="61.515" y1="65.2166" x2="180.96" y2="182.965" gradientUnits="userSpaceOnUse">
<stop stop-color="#FF3D2E"/>
<stop offset="0.0001" stop-color="#E4C691"/>
<stop offset="1" stop-color="#FF3D2E" stop-opacity="0"/>
</linearGradient>
</defs>
</svg>
