<svg width="42" height="22" viewBox="0 0 42 22" fill="none" xmlns="http://www.w3.org/2000/svg">
<path d="M0 11.0974C0.330898 12.1387 1.02885 12.4977 2.04565 12.4965C13.2951 12.478 24.5446 12.485 35.794 12.485C35.9529 12.485 36.1118 12.485 36.3594 12.485C36.1808 12.6819 36.0657 12.8151 35.9452 12.9425C34.1833 14.7979 32.4204 16.6545 30.6563 18.5088C30.1863 19.0034 30.0362 19.5999 30.2137 20.2589C30.3879 20.9052 30.8185 21.3175 31.4441 21.4611C32.0555 21.6013 32.5694 21.3859 33.0077 20.9249C34.6052 19.242 36.206 17.5626 37.8057 15.882C38.9978 14.6288 40.1899 13.3756 41.3798 12.1201C42.206 11.248 42.2093 10.2577 41.3809 9.38557C38.6023 6.45876 35.8203 3.53426 33.0373 0.612082C32.2955 -0.166241 31.305 -0.203304 30.63 0.507841C29.9452 1.22941 29.9901 2.28802 30.7451 3.08372C32.4872 4.92065 34.2305 6.75526 35.9759 8.58872C36.0822 8.69991 36.2049 8.79488 36.3199 8.89681C36.309 8.93734 36.298 8.97672 36.2871 9.01726C36.137 9.01726 35.9868 9.01726 35.8378 9.01726C24.5752 9.01726 13.3115 9.02421 2.04894 9.00568C1.02995 9.00336 0.331994 9.36357 0 10.4036C0 10.6353 0 10.8658 0 11.0974Z" fill="#983232"/>
</svg>
