<svg width="237" height="154" viewBox="0 0 237 154" fill="none" xmlns="http://www.w3.org/2000/svg">
<g filter="url(#filter0_f_3366_15132)">
<path d="M90.3595 29.6407C155.522 36.1416 332.408 343.995 323.235 407.148C312.434 481.51 267.308 193.19 177.109 387.153C111.946 380.652 29.9224 237.847 39.095 174.695C48.2676 111.543 25.1966 23.1398 90.3595 29.6407Z" fill="url(#paint0_linear_3366_15132)"/>
</g>
<g filter="url(#filter1_f_3366_15132)">
<path d="M-24.0857 -202.188C-27.1311 -131.781 34.422 -71.7476 25.2494 -8.59529C16.0768 54.557 7.86028 33.0079 -57.3026 26.507C-122.466 20.0061 -156.987 -52.5747 -147.815 -115.727C-138.642 -178.879 -55.0335 -131.41 -24.0857 -202.188Z" fill="#146EF5" fill-opacity="0.76"/>
</g>
<defs>
<filter id="filter0_f_3366_15132" x="-35.2673" y="-44.3542" width="432.502" height="537.721" filterUnits="userSpaceOnUse" color-interpolation-filters="sRGB">
<feFlood flood-opacity="0" result="BackgroundImageFix"/>
<feBlend mode="normal" in="SourceGraphic" in2="BackgroundImageFix" result="shape"/>
<feGaussianBlur stdDeviation="36.828" result="effect1_foregroundBlur_3366_15132"/>
</filter>
<filter id="filter1_f_3366_15132" x="-209.65" y="-262.563" width="296.209" height="358.275" filterUnits="userSpaceOnUse" color-interpolation-filters="sRGB">
<feFlood flood-opacity="0" result="BackgroundImageFix"/>
<feBlend mode="normal" in="SourceGraphic" in2="BackgroundImageFix" result="shape"/>
<feGaussianBlur stdDeviation="30.188" result="effect1_foregroundBlur_3366_15132"/>
</filter>
<linearGradient id="paint0_linear_3366_15132" x1="61.518" y1="65.2166" x2="180.963" y2="182.965" gradientUnits="userSpaceOnUse">
<stop stop-color="#146EF5"/>
<stop offset="0.0001" stop-color="#146EF5"/>
<stop offset="1" stop-color="#2C41FE" stop-opacity="0"/>
</linearGradient>
</defs>
</svg>
